# xmcd
#
# Track frame offsets:
#	150
#	17924
#	31250
#	47125
#	64973
#	81817
#	98154
#	115654
#	130174
#	146587
#	162846
#	178748
#	194148
#	207840
#	234067
#	249812
#	266156
#	290489
#
# Disc length: 4070 seconds
#
# Revision: 4
# Processed by: cddbd v1.5.1PL0 Copyright (c) Steve Scherf et al.
# Submitted via: audiograbber 1.83.01
#
DISCID=fe0fe412
DTITLE=2003-04 Country Radio - 2003-04 Country Radio
DYEAR=2003
DGENRE=Country
TTITLE0=David Worley - Have You Forgotten?
TTITLE1=Tracy Byrd feat. Andy Griggs, Montgomery Gentry, and Blake Shelton - The 
TTITLE1=Truth About Men
TTITLE2=Lonestar - My Front Porch Looking In
TTITLE3=Terri Clark - Three Mississippi
TTITLE4=Brad Paisley - Celebrity (Single Edit)
TTITLE5=Vince Gill - Someday
TTITLE6=Brad Martin - One Of Those Days
TTITLE7=Brian McComas - 99.9% Sure (I've Never Been Here Before)
TTITLE8=Emerson Drive - Only God (Could Stop Me From Loving You)
TTITLE9=Johnny Cash - Hurt
TTITLE10=Tanya Tucker - Old Weakness (Coming On Strong)(Album Version)
TTITLE11=Trick Pony - A Boy Like You (Album Version)
TTITLE12=The Derailers - Genuine
TTITLE13=Bering Straight - Bearing Straight
TTITLE14=Eric Heatherly - When A Heart Begins To Drift
TTITLE15=Joanie Keller - If Heartaches Had Wings
TTITLE16=Rebel Hearts - Heroes (Radio Version)
TTITLE17=Christy - He Rocks My World
EXTD=
EXTT0=
EXTT1=
EXTT2=
EXTT3=
EXTT4=
EXTT5=
EXTT6=
EXTT7=
EXTT8=
EXTT9=
EXTT10=
EXTT11=
EXTT12=
EXTT13=
EXTT14=
EXTT15=
EXTT16=
EXTT17=
PLAYORDER=
